<?xml version="1.0" encoding="utf-8"?>
<!-- Generator: Adobe Illustrator 19.2.1, SVG Export Plug-In . SVG Version: 6.00 Build 0)  -->
<svg version="1.1" id="Layer_1" xmlns="http://www.w3.org/2000/svg" xmlns:xlink="http://www.w3.org/1999/xlink" x="0px" y="0px"
	 viewBox="0 0 746.5 375.1" style="enable-background:new 0 0 746.5 375.1;" xml:space="preserve">
<style type="text/css">
	.st0{fill:#F15A25;stroke:#020202;stroke-width:4.3;}
	.st1{fill:#3B54A4;stroke:#020202;stroke-width:4.3;}
	.st2{fill:#F15A25;stroke:#010101;stroke-width:4.3;}
</style>
<g>
	<path class="st0" d="M382.2,9.9c0,0-7.3,14.8-7.3,24.1c0,0,18,3.3,56-3.3c0,0-5.3,31.2-5.3,125.7c0,0,16,1.9,31.3-4.1
		c0,0-4-102.9,0-118.9c0,0,40-2.7,50.7-1.3c0,0,3.3-7.5,3.3-22.1S382.2,9.9,382.2,9.9z"/>
	<path class="st0" d="M533.2,2.5c0,0-12.7,43.1-15.3,153c0,0,69.3-3.9,107.3,0c0,0,7.3-22.1,3.3-27.5s-80-2-80-4s0-2,0-2L559.2,6
		C559.2,6,550.5,1.7,533.2,2.5z"/>
	<path class="st0" d="M654.6,7.2c0,0-11.3,111-9.3,146.3c0,0,48.7,5.3,93.3,0c0,0,3.3-22.7,0-28s-66.1-2.7-66.1-2.7
		s2.1-26.3,2.8-31.7c0,0,33.3,1.3,34.7-0.7c0,0,3.3-20,1.3-24.7c0,0-34,2-34.7-2c0,0,4-31.3,4-34.7c0,0,55.6,0,59.5,2l3.9-20.7
		C712.6-0.1,654.6,7.2,654.6,7.2z"/>
	<path class="st0" d="M74.8,71.3c0,0,24.3-11.2,23.7-20.4c-0.7-9.2-0.7-32.8-15.3-42.6c-14.7-9.8-72.7-4-72.7-4s-12,70.2-7.3,125.9
		c4.7,55.8,106,9.8,106-12.7S100.5,73.3,74.8,71.3z M40.6,25.6c16.5-2.2,23.1,3.8,26.9,8.2c3.8,4.4,7.1,13.7-2.7,19.6
		c-9.9,5.8-26.4,3.8-26.4,3.8C39.5,37.8,40.6,25.6,40.6,25.6z M71.3,117.4c-7.2,8.2-41.7,22-44.4,8.8s5.5-31.9,5.5-31.9
		s29.7-2.2,34.1,0C70.8,96.5,78.5,109.1,71.3,117.4z"/>
	<path class="st0" d="M168.9,2.6c-53.7,15.9-48.7,153.8-48.7,153.8c19.3,2.1,37.3-2.8,37.3-2.8s-9.3-53.3-1.3-53.3
		s34.6-0.7,34.6-0.7l8.7,53.3c0,0,22.7,3.3,28.7-1.3C234.2,146.9,201.6-7.1,168.9,2.6z M156.5,75c0,0-1.1-39.6,10.4-42.3
		c11.6-2.7,22.6,37.6,22.6,37.6S186,79.3,156.5,75z"/>
	<path class="st0" d="M232.3,10.2c0,0-7.3,14.8-7.3,24.1c0,0,18,3.3,56-3.3c0,0-5.3,31.2-5.3,125.7c0,0,16,1.9,31.3-4.1
		c0,0-4-102.9,0-118.9c0,0,40-2.7,50.7-1.3c0,0,3.3-7.5,3.3-22.1S232.3,10.2,232.3,10.2z"/>
</g>
<path class="st0" d="M226.1,248.8c-3.3-8.8-11.8-30.6-33.3-30.5c-34.1,0.2-45.8,6.6-52.3,53.4s0.2,75.1,16.2,93.2
	c5.4,6.1,43.3,17.5,65.2-7.2C243.9,333,229.4,257.6,226.1,248.8z M207.5,309.2c-2.8,26.8-8.2,30.5-24.1,30.8
	c-10,0.2-14.1-12.3-15.7-17.3s-8.7-48.1,1.4-62.3c10.1-14.2,27.8-7.9,30.3-4.4C207,266.2,210.3,282.4,207.5,309.2z"/>
<path class="st0" d="M449.3,287.1c0,0,24.3-11.2,23.7-20.4c-0.7-9.2-0.7-32.8-15.3-42.6c-14.7-9.8-72.7-4-72.7-4s-16,87.7-9.2,143.3
	c1.1,9.2,29.9,10.4,29.3,5.8c-7.1-62.4,1.7-59.1,1.7-59.1s26.4-4.4,33.5,6c12.3,18.1,4,44.6,5.5,53.3c0.2,1.3,31.9,8.2,31.9-1.6
	C477.7,345.4,475,289.1,449.3,287.1z M439.3,269.2c-9.9,5.8-26.4,3.8-26.4,3.8c1.1-19.5,2.2-31.6,2.2-31.6
	c16.5-2.2,23.1,3.8,26.9,8.2C445.9,254.1,449.2,263.4,439.3,269.2z"/>
<path class="st0" d="M589.7,299.4c-2.2-49.7-8.4-63.8-20.3-71.4c-25.1-16-72-10.6-72-10.6s-9.3,42.5,0,154
	C497.4,371.4,593.4,383,589.7,299.4z M551.8,326.9c-12.6,20.3-24.1,19.2-24.1,19.2s-9.4-4.6-3.4-99c0,0,21.4-8.7,31.9,16.1
	C566.6,287.9,564.4,306.7,551.8,326.9z"/>
<path class="st0" d="M94,286.5c0,0,24.3-11.2,23.7-20.4c-0.7-9.2-0.7-32.8-15.3-42.6c-14.7-9.8-72.7-4-72.7-4s-12,70.2-7.3,125.9
	c4.7,55.8,106,9.8,106-12.7C128.4,310.2,119.6,288.5,94,286.5z M59.7,240.8c16.5-2.2,23.1,3.8,26.9,8.2s7.1,13.7-2.7,19.6
	c-9.9,5.8-26.4,3.8-26.4,3.8C58.6,252.9,59.7,240.8,59.7,240.8z M90.4,332.6c-7.2,8.2-41.7,22-44.4,8.8c-2.7-13.2,5.5-31.9,5.5-31.9
	s29.7-2.2,34.1,0C89.9,311.7,97.6,324.3,90.4,332.6z"/>
<path class="st0" d="M296.8,217.8c-53.7,15.9-48.7,153.8-48.7,153.8c19.3,2.1,37.3-2.8,37.3-2.8s-9.3-53.3-1.3-53.3
	s34.7-0.7,34.7-0.7l8.7,53.3c0,0,22.7,3.3,28.7-1.3C362,362.1,329.4,208.1,296.8,217.8z M284.3,290.2c0,0-1.1-39.6,10.4-42.3
	c11.5-2.7,22.5,37.5,22.5,37.5S313.8,294.5,284.3,290.2z"/>
<path class="st1" d="M343.4,156c-6.6-15.8-3.1-20.1-30.6-19.9c-15.7,0.2-12.9,26.9-12.9,26.9s-11.6,0-14.7,0c0,0-4.6,9.9-0.8,13
	c5.7,1.6,14.9-1.1,13.4-0.7c0,0-2.5,30.5-2.5,47.7c0,0,13.7,0.9,18.7,0c0,0-3.5-33.3-1-46.3c0,0,12,1.7,14.7,0.7c0,0,3-9.2,0.8-11.6
	l-13.3-0.6c0,0-2-19.5,4.6-18.5c13.1,2.1,8.1,9.7,12,10.9C335.7,158.9,343.4,156,343.4,156z"/>
<path class="st1" d="M267.6,165.5c-20-10.7-37,1.7-42.3,13c-3.7,7.9-3.6,33.8,3.3,40.3c10.7,10,34.3,7.3,45-8.7
	C284.3,194.2,273.9,168.8,267.6,165.5z M250.9,209.7c-2.5,0-14.5-1.5-14.5-16.8c0-15.4,14.5-16.7,14.5-16.7
	c8.8-1.9,9.3,6.3,10.3,18.3C262.3,206.5,253.4,209.7,250.9,209.7z"/>
<path class="st1" d="M361.2,164h9.2c1.4-5.1,0.4-8.8,1-9.4c0,0,8.5-1.2,13.1,0l1.2,9.6c4,1.5,8.6-1.2,11.1,1c0,0,1.5,9.1,0,12.2h-11
	c-2.2,2.4,0.5,20.3-0.7,46c0,0-13.8,1.1-15.3,0V176c-2.6,0-8.6,1-9.8,0C360,176,358.7,172.3,361.2,164z"/>
<path class="st1" d="M410.9,136.2c0,0-6.5,39.2-2.5,87.9c0,0,10.8,0.5,15.4-0.2c0,0-2.8-33.6-1.5-36.7c1.2-3.1,8.6-10.7,14.8-2.8
	c6.2,7.9,6.5,39.8,6.5,39.8s3.7,1.3,13.8,0c0,0,3.1-44.1-8.9-53.6s-23.7-1.9-24.6-5.3c0,0-2.2-11.3,0.6-27
	C424.4,138.3,419.2,135.9,410.9,136.2z"/>
<path class="st1" d="M520.4,205.8c0,0-18.3,9.4-30.9,2.9s-7.5-15-7.5-15s21.2,2.3,40.3,0c0,0,4.9-28.6-24-29.8
	c-28.9-1.2-39.4,37.3-25.3,53.4c8.6,9.8,47.5,7.6,50.4-0.2C523.4,217.1,521.8,209.5,520.4,205.8z M496.7,176c7.4-0.5,10.2,7,10.2,7
	c-11.4,1.8-20.3,0-20.3,0S489.4,176.5,496.7,176z"/>
<path class="st2" d="M626.2,326.5c-6.8-1.2-16.7,9.5-28.4,9.2c8.7,13.2,35,40,64.3,35.7c28.6-4.2,43.7-27.6,42.4-45.5
	c-2.1-30-42.3-36.6-55-53.6c-9-12.1,1.4-21.5,13.7-22.8c12.9-1.4,15.1,12.5,27.4,16.5c7.2,2.4,17.6-6,29.3-5
	c-0.2-17.3-36.1-47.2-60.5-44.4c-22.6,2.6-56,33.8-53.2,56.4c2.9,23.7,62.3,31.9,60.5,54c-0.6,7.3-0.7,13-7.8,14.6
	C650.6,343.2,634.8,328,626.2,326.5L626.2,326.5z"/>
</svg>
