<?xml version="1.0" encoding="utf-8"?>
<!-- Generator: Adobe Illustrator 19.2.1, SVG Export Plug-In . SVG Version: 6.00 Build 0)  -->
<svg version="1.1" id="Layer_1" xmlns="http://www.w3.org/2000/svg" xmlns:xlink="http://www.w3.org/1999/xlink" x="0px" y="0px"
	 viewBox="0 0 205.1 21.1" style="enable-background:new 0 0 205.1 21.1;" xml:space="preserve">
<style type="text/css">
	.st0{fill:#507077;}
</style>
<path class="st0" d="M204.2,12.3c-4.3,0-48.2-11.7-52.8-12.3c-4.6-0.6-44.2,6.8-44.2,6.8c-4.6-0.9-12.5,0.1-12.5,0.1
	S58.5,0.3,51.9,1.5C45.3,2.6,0,12.3,0,12.3c6.3,5.4,44.8-2.2,44.8-2.2l37.6,5.3c0,0-3.4-0.3-2.3,2.9c1.1,3.1,10.3,2.9,10.3,2.9
	s9-0.3,13.6-2.1c1.9-0.8,3.1-1.7,3.9-2.7c1-0.1,1.8-0.5,2.3-1.2c0.5-0.7,0.6-1.6,0.3-2.5C117,12.2,151.7,8,151.7,8
	C199.3,17.7,208.5,12.3,204.2,12.3z"/>
</svg>
