<?xml version="1.0" encoding="utf-8"?>
<!-- Generator: Adobe Illustrator 19.2.1, SVG Export Plug-In . SVG Version: 6.00 Build 0)  -->
<svg version="1.1" id="Layer_1" xmlns="http://www.w3.org/2000/svg" xmlns:xlink="http://www.w3.org/1999/xlink" x="0px" y="0px"
	 viewBox="0 0 254.2 56" style="enable-background:new 0 0 254.2 56;" xml:space="preserve">
<style type="text/css">
	.st0{fill:#517077;}
</style>
<path class="st0" d="M197.1,0c-8.7,0.4-37.5,14.7-47.4,25.1c-14.6-3.7-28.2-2.3-28.2-2.3S92.9,3.3,88.3,0.6C82.2-3-0.8,11.3,0,13.5
	c0,0,12.9-0.6,19.4,0c6.5,0.6,42.2,4.3,50.5,4.3c8.3,0,20.3,12.3,27.4,11.7c0,0-6.5,6.8-20.6,4.3c-14.2-2.5-1.5,10.2,4.3,12.9
	s9.8,6.8,13.8,6.2c4-0.6,6.8-4,6.8-4s7.7,7.1,28.6,7.1s39.7-6.8,39.4-8.9c0,0,5.2,3.1,6.8,3.7c0,0,1.7,4,3.5,4s2.1-6.8-5.9-12
	c0,0-1.4-7.5-12.3-13.3l10.3-6.7c0,0,30.8,1.4,44.4,0.8c13.6-0.6,32,11.5,37.6,11.5C259.4,35.1,206.8-0.5,197.1,0z"/>
</svg>
