<?xml version="1.0" encoding="utf-8"?>
<!-- Generator: Adobe Illustrator 19.2.1, SVG Export Plug-In . SVG Version: 6.00 Build 0)  -->
<svg version="1.1" id="Layer_1" xmlns="http://www.w3.org/2000/svg" xmlns:xlink="http://www.w3.org/1999/xlink" x="0px" y="0px"
	 viewBox="0 0 190.3 35.4" style="enable-background:new 0 0 190.3 35.4;" xml:space="preserve">
<style type="text/css">
	.st0{fill:#507077;}
</style>
<path class="st0" d="M189.9,16.2c-4.5-2.1-45.1-17.5-59.9-16.1c-12.5,1.1-30.1,7.7-35.4,9.7c-12-5.4-24-9.8-31.3-9.7
	C46.1,0.4,0,12.7,0,12.7s41.5,3,52.2,3s16.9,4.6,14.8,6.1c-2.1,1.5-15.4,2.1-17.5,6.5c-0.5,1.1,6.5,6.8,15.7,7.1
	c9.2,0.3,12.8-3.6,12.8-3.6s14.7,3.5,33.7-1c19-4.5,18.1,0.4,21.4,1.6c3.3,1.2,0.6-7.9-7.7-10.6c-3.8-1.2-1.9-3.1-18.2-5.1
	c13.5-0.8,28.5-4.1,36.4-4.4C154.3,12.1,194.4,18.3,189.9,16.2z"/>
</svg>
