<?xml version="1.0" encoding="UTF-8" standalone="no"?>
<!-- Created with Inkscape (http://www.inkscape.org/) -->

<svg
   xmlns:dc="http://purl.org/dc/elements/1.1/"
   xmlns:cc="http://creativecommons.org/ns#"
   xmlns:rdf="http://www.w3.org/1999/02/22-rdf-syntax-ns#"
   xmlns:svg="http://www.w3.org/2000/svg"
   xmlns="http://www.w3.org/2000/svg"
   xmlns:sodipodi="http://sodipodi.sourceforge.net/DTD/sodipodi-0.dtd"
   xmlns:inkscape="http://www.inkscape.org/namespaces/inkscape"
   id="svg4136"
   version="1.1"
   inkscape:version="0.91 r13725"
   width="326"
   height="250"
   viewBox="0 0 326 250"
   sodipodi:docname="clouds.svg"
   inkscape:export-filename="C:\Users\joers\Documents\git\src\github.com\astropuffin\surfwars\Assets\art\cloud.png"
   inkscape:export-xdpi="452.31"
   inkscape:export-ydpi="452.31">
  <metadata
     id="metadata4142">
    <rdf:RDF>
      <cc:Work
         rdf:about="">
        <dc:format>image/svg+xml</dc:format>
        <dc:type
           rdf:resource="http://purl.org/dc/dcmitype/StillImage" />
        <dc:title></dc:title>
      </cc:Work>
    </rdf:RDF>
  </metadata>
  <defs
     id="defs4140" />
  <sodipodi:namedview
     pagecolor="#ffffff"
     bordercolor="#666666"
     borderopacity="1"
     objecttolerance="10"
     gridtolerance="10"
     guidetolerance="10"
     inkscape:pageopacity="0"
     inkscape:pageshadow="2"
     inkscape:window-width="1280"
     inkscape:window-height="737"
     id="namedview4138"
     showgrid="false"
     inkscape:zoom="1.5216938"
     inkscape:cx="189.42007"
     inkscape:cy="106.63278"
     inkscape:window-x="-8"
     inkscape:window-y="-8"
     inkscape:window-maximized="1"
     inkscape:current-layer="svg4136" />
  <g
     id="g4283"
     inkscape:export-filename="C:\Users\joers\Documents\git\src\github.com\astropuffin\surfwars\Assets\art\cloud.png"
     inkscape:export-xdpi="452.31"
     inkscape:export-ydpi="452.31">
    <path
       sodipodi:nodetypes="csc"
       inkscape:connector-curvature="0"
       id="path4146"
       d="m 12.081784,151.48699 c 0,0 -15.4676556,-8.66499 -9.5260226,-26.71933 7.0931379,-21.55333 27.6486996,-21.14312 27.6486996,-21.14312"
       style="fill:none;fill-rule:evenodd;stroke:#000000;stroke-width:1px;stroke-linecap:butt;stroke-linejoin:miter;stroke-opacity:1" />
    <path
       sodipodi:nodetypes="csc"
       inkscape:connector-curvature="0"
       id="path4146-5"
       d="m 25.962616,103.35803 c 0,0 2.57407,-19.379273 19.281539,-28.441433 C 65.189584,64.098161 86.60186,72.746036 86.60186,72.746036"
       style="fill:none;fill-rule:evenodd;stroke:#000000;stroke-width:1px;stroke-linecap:butt;stroke-linejoin:miter;stroke-opacity:1" />
    <path
       sodipodi:nodetypes="csc"
       inkscape:connector-curvature="0"
       id="path4146-5-5"
       d="m 83.270387,86.098469 c 0,0 -2.298201,-21.452655 27.167483,-28.605723 31.49823,-7.646485 46.94359,8.836909 46.94359,8.836909"
       style="fill:none;fill-rule:evenodd;stroke:#000000;stroke-width:1px;stroke-linecap:butt;stroke-linejoin:miter;stroke-opacity:1" />
    <path
       sodipodi:nodetypes="csc"
       inkscape:connector-curvature="0"
       id="path4146-5-7"
       d="m 157.36545,67.862212 c 0,0 10.20778,-14.200058 40.8036,-10.369465 29.5266,3.696726 36.75757,26.908876 36.75757,26.908876"
       style="fill:none;fill-rule:evenodd;stroke:#000000;stroke-width:1px;stroke-linecap:butt;stroke-linejoin:miter;stroke-opacity:1" />
    <path
       sodipodi:nodetypes="csc"
       inkscape:connector-curvature="0"
       id="path4146-5-3"
       d="m 230.26867,75.086085 c 0,0 18.66467,-6.061796 35.97115,1.796205 20.66053,9.380906 25.09573,23.52869 25.09573,23.52869"
       style="fill:none;fill-rule:evenodd;stroke:#000000;stroke-width:1px;stroke-linecap:butt;stroke-linejoin:miter;stroke-opacity:1" />
    <path
       sodipodi:nodetypes="csc"
       inkscape:connector-curvature="0"
       id="path4146-5-3-2"
       d="m 290.39054,99.820324 c 0,0 13.88374,-1.859715 23.64936,14.446576 9.16019,15.29537 -4.80516,28.12884 -4.80516,28.12884"
       style="fill:none;fill-rule:evenodd;stroke:#000000;stroke-width:1px;stroke-linecap:butt;stroke-linejoin:miter;stroke-opacity:1" />
    <path
       sodipodi:nodetypes="csc"
       inkscape:connector-curvature="0"
       id="path4146-5-3-23"
       d="m 305.1767,136.62142 c 0,0 10.6217,10.55442 0.97726,26.93267 -10.55469,17.92402 -27.97013,17.28565 -27.97013,17.28565"
       style="fill:none;fill-rule:evenodd;stroke:#000000;stroke-width:1px;stroke-linecap:butt;stroke-linejoin:miter;stroke-opacity:1" />
    <path
       sodipodi:nodetypes="csc"
       inkscape:connector-curvature="0"
       id="path4146-5-3-6"
       d="m 278.07234,180.80728 c 0,0 -1.99312,15.44498 -19.30724,23.28611 -20.66967,9.36077 -39.6977,-2.93081 -39.6977,-2.93081"
       style="fill:none;fill-rule:evenodd;stroke:#000000;stroke-width:1px;stroke-linecap:butt;stroke-linejoin:miter;stroke-opacity:1" />
    <path
       sodipodi:nodetypes="csc"
       inkscape:connector-curvature="0"
       id="path4146-5-3-24"
       d="m 225.82434,188.53725 c 0,0 -6.58354,18.37822 -24.98067,23.15399 -17.78347,4.61647 -37.49898,-6.86508 -37.49898,-6.86508"
       style="fill:none;fill-rule:evenodd;stroke:#000000;stroke-width:1px;stroke-linecap:butt;stroke-linejoin:miter;stroke-opacity:1" />
    <path
       sodipodi:nodetypes="csc"
       inkscape:connector-curvature="0"
       id="path4146-5-3-3"
       d="m 103.09926,202.50196 c 0,0 10.06796,12.6969 29.07094,12.3108 23.45347,-0.47653 30.84591,-10.31517 30.84591,-10.31517"
       style="fill:none;fill-rule:evenodd;stroke:#000000;stroke-width:1px;stroke-linecap:butt;stroke-linejoin:miter;stroke-opacity:1" />
    <path
       sodipodi:nodetypes="csc"
       inkscape:connector-curvature="0"
       id="path4146-5-3-37"
       d="m 48.061902,179.33698 c 0,0 0.549251,20.21839 22.663612,24.96118 27.279091,5.85045 36.267496,-4.72929 36.267496,-4.72929"
       style="fill:none;fill-rule:evenodd;stroke:#000000;stroke-width:1px;stroke-linecap:butt;stroke-linejoin:miter;stroke-opacity:1" />
    <path
       sodipodi:nodetypes="csc"
       inkscape:connector-curvature="0"
       id="path4146-5-3-5"
       d="m 11.589384,151.40758 c 0,0 -4.5078934,17.16621 10.177526,29.23273 9.817346,8.06659 26.738639,3.32096 26.738639,3.32096"
       style="fill:none;fill-rule:evenodd;stroke:#000000;stroke-width:1px;stroke-linecap:butt;stroke-linejoin:miter;stroke-opacity:1" />
    <path
       sodipodi:nodetypes="csc"
       inkscape:connector-curvature="0"
       id="path4146-5-3-58"
       d="m 90.488337,169.78888 c 0,0 -14.000881,7.35853 -31.14042,-0.008 -20.846743,-8.95947 -16.495332,-21.87723 -16.495332,-21.87723"
       style="fill:none;fill-rule:evenodd;stroke:#000000;stroke-width:1px;stroke-linecap:butt;stroke-linejoin:miter;stroke-opacity:1" />
    <path
       sodipodi:nodetypes="csc"
       inkscape:connector-curvature="0"
       id="path4146-5-3-0"
       d="m 183.14277,175.15405 c 0,0 -4.63485,8.15313 -24.60033,8.28723 -22.70144,0.15248 -26.72698,-8.6007 -26.72698,-8.6007"
       style="fill:none;fill-rule:evenodd;stroke:#000000;stroke-width:1px;stroke-linecap:butt;stroke-linejoin:miter;stroke-opacity:1" />
    <path
       inkscape:connector-curvature="0"
       id="path4277"
       d="m 125.75271,213.67671 c -6.56873,-0.93799 -13.44026,-4.02393 -18.69184,-8.39435 l -2.85477,-2.37576 1.71549,-1.44025 c 1.3215,-1.10947 1.58912,-1.56662 1.16525,-1.99049 -0.42388,-0.42387 -0.86793,-0.28294 -1.93345,0.61364 -6.356703,5.34881 -21.753887,6.74023 -35.413381,3.20025 -6.21657,-1.61108 -12.297579,-5.37852 -15.31394,-9.48762 -2.850967,-3.8838 -5.336613,-9.70798 -5.366585,-12.57458 -0.01617,-1.54512 -0.749995,-2.69023 -1.33757,-2.08719 -0.263584,0.27052 -0.301575,1.25313 -0.092,2.3796 l 0.356984,1.91881 -3.153476,0.52078 c -4.037056,0.66671 -10.825008,0.66809 -13.987825,0.003 -8.297051,-1.74512 -15.828532,-9.55653 -18.245481,-18.92363 -0.75975,-2.94447 -1.036876,-9.56047 -0.528769,-12.62361 0.25313,-1.526 0.120617,-1.7408 -2.1871261,-3.54528 -5.0491939,-3.94801 -7.7557338,-9.58087 -7.7557338,-16.14119 0,-12.65776 9.1032409,-24.17645 21.6828219,-27.43615 4.462318,-1.1563 4.632707,-1.09215 3.285762,1.23711 -1.786168,3.08881 -3.130174,7.15257 -3.605518,10.9017 -1.624472,12.81254 6.999882,28.02694 17.292426,30.50593 1.115662,0.26871 1.221786,0.46487 0.997898,1.84453 -0.529426,3.26247 1.765568,9.15154 4.896158,12.5638 3.400048,3.70596 10.864518,7.88415 17.587144,9.84429 7.346645,2.1421 16.448364,1.95208 23.363601,-0.48776 l 1.925228,-0.67926 1.640548,1.59327 c 1.921868,1.8665 6.427825,3.83716 13.196954,5.77164 6.40083,1.82922 9.61188,2.37513 13.97045,2.37513 4.85275,0 7.70744,-0.67842 10.87127,-2.58358 l 2.64674,-1.59379 1.69024,1.33095 c 2.64624,2.08373 6.22176,3.70504 10.6387,4.82407 3.53443,0.89546 5.30137,1.03018 13.58872,1.03605 8.48804,0.006 9.9486,-0.10878 13.40418,-1.05352 4.1764,-1.14181 7.72356,-2.76606 10.2565,-4.69649 1.10666,-0.84341 1.64762,-1.0321 1.78421,-0.62233 0.10781,0.32344 0.9937,1.64968 1.96864,2.9472 5.08918,6.77307 15.2132,10.94758 27.74861,11.44181 3.95777,0.15603 6.90759,0.0482 8.30467,-0.30359 1.19168,-0.30007 2.26753,-0.44473 2.39079,-0.32147 0.12326,0.12326 -0.91451,1.96237 -2.30614,4.08691 -4.75589,7.26058 -11.30243,12.56312 -18.52302,15.00319 -5.13327,1.73469 -12.97278,2.12749 -19.23848,0.96395 -4.96816,-0.92259 -12.56526,-3.38205 -16.35276,-5.29397 -1.49465,-0.7545 -3.13166,-1.43765 -3.63779,-1.51811 -0.53545,-0.0851 -2.1271,0.74817 -3.80658,1.99291 -7.67273,5.6866 -22.68542,8.89472 -34.03775,7.27366 z"
       style="opacity:1;fill:#eaeaea;fill-opacity:1;fill-rule:evenodd;stroke:#fffffa;stroke-width:0.46468401;stroke-linecap:square;stroke-linejoin:miter;stroke-miterlimit:4;stroke-dasharray:none;stroke-opacity:1" />
    <path
       inkscape:connector-curvature="0"
       id="path4279"
       d="m 235.24175,206.32693 c -4.76664,-0.8606 -15.64115,-4.8759 -15.64115,-5.77533 0,-0.13924 0.78416,-1.28927 1.74257,-2.55563 1.31873,-1.74245 4.03575,-6.39091 4.57734,-7.8312 0.0257,-0.0683 1.28032,0.61893 2.7881,1.5271 5.48839,3.30576 12.98107,4.71563 22.52291,4.23805 9.83191,-0.49209 16.58952,-2.79147 21.56329,-7.33721 1.41233,-1.29079 2.56788,-2.19835 2.56788,-2.0168 0,0.18156 -0.64446,1.53922 -1.43212,3.01703 -3.75538,7.04582 -11.92282,13.21701 -20.95235,15.83127 -3.82079,1.10621 -13.79708,1.61397 -17.73647,0.90272 z"
       style="opacity:1;fill:#eaeaea;fill-opacity:1;fill-rule:evenodd;stroke:#fffffa;stroke-width:0.46468401;stroke-linecap:square;stroke-linejoin:miter;stroke-miterlimit:4;stroke-dasharray:none;stroke-opacity:1" />
    <path
       inkscape:export-ydpi="452.31"
       inkscape:export-xdpi="452.31"
       inkscape:export-filename="C:\Users\joers\Documents\git\src\github.com\astropuffin\surfwars\Assets\art\cloud.png"
       inkscape:connector-curvature="0"
       id="path4281"
       d="m 238.17608,195.35779 c -5.53897,-1.10498 -11.82348,-4.15159 -11.82348,-5.7318 0,-1.71309 -1.22242,-1.44097 -2.09106,0.46548 -0.73738,1.61837 -0.86529,1.64291 -8.56359,1.64291 -8.18771,0 -14.85843,-1.12328 -20.15592,-3.39406 -6.6691,-2.8587 -12.93495,-9.16741 -12.13675,-12.21975 0.50241,-1.9212 -0.47791,-1.87217 -2.347,0.11738 -7.79952,8.30221 -38.94631,8.3155 -46.73959,0.0199 -0.83175,-0.88533 -1.9043,-1.60971 -2.38345,-1.60971 -1.02386,0 -1.13401,0.78865 -0.23564,1.68702 0.4093,0.4093 -0.81892,1.32768 -3.4501,2.57972 -3.70058,1.76093 -4.67409,1.9361 -10.32871,1.85858 -6.3146,-0.0866 -12.38611,-1.46634 -21.050039,-4.78372 -4.683583,-1.79334 -7.933337,-4.39414 -6.56981,-5.25789 2.011239,-1.27405 -0.10376,-1.49839 -3.42374,-0.36317 -5.028756,1.71952 -15.562662,2.07639 -20.911915,0.70847 -9.456165,-2.41815 -18.484684,-8.55021 -21.253132,-14.43485 -0.663052,-1.40939 -1.227485,-4.01661 -1.254296,-5.79382 -0.04342,-2.87801 -0.189974,-3.19437 -1.340453,-2.89351 -3.12337,0.81678 -9.536824,-3.58326 -13.143903,-9.01756 -3.618888,-5.45208 -5.089377,-9.88484 -5.48475,-16.53368 -0.313757,-5.27635 -0.161332,-6.44622 1.412781,-10.84318 0.970466,-2.71079 1.807423,-5.44623 1.859904,-6.07875 0.06615,-0.79721 0.657053,-1.15004 1.926087,-1.15004 1.006867,0 1.830667,-0.29572 1.830667,-0.65716 0,-0.36144 -0.87123,-0.65716 -1.936067,-0.65716 l -1.936066,0 1.00123,-3.450103 c 3.311056,-11.409455 10.548274,-20.342142 20.040366,-24.735242 3.026452,-1.400692 7.129118,-2.948659 9.117034,-3.439927 5.14702,-1.271966 16.963375,-1.103169 23.22633,0.33179 4.771403,1.093217 5.120918,1.286474 4.704226,2.601101 -2.30007,7.25651 -2.983456,12.26332 -1.673837,12.26332 0.345062,0 0.808576,-1.108962 1.030033,-2.46436 0.895373,-5.480016 1.199208,-6.538345 2.77411,-9.66291 3.760128,-7.459992 12.456687,-13.306704 24.18161,-16.257337 7.74621,-1.94937 22.03299,-2.114822 28.55999,-0.330747 7.31284,1.998868 17.08623,7.50505 17.08623,9.626121 0,1.287326 1.71961,0.694916 3.56056,-1.226617 2.28715,-2.38727 8.67423,-5.572576 14.2303,-7.096809 3.2213,-0.883719 6.64221,-1.15181 14.4101,-1.129294 11.81382,0.03424 18.14659,1.34984 25.94515,5.389958 6.11858,3.16979 14.50257,11.420283 17.34949,17.073242 1.13767,2.258996 2.35995,4.107265 2.71619,4.107265 1.09238,0 0.71067,-1.485472 -1.33569,-5.198003 -1.07777,-1.955303 -1.95958,-3.634745 -1.95958,-3.732092 0,-0.09735 1.7004,-0.546301 3.77868,-0.997673 5.65461,-1.228104 17.3517,-1.03978 22.83639,0.367668 5.28444,1.356059 13.66997,5.342989 18.14168,8.625525 4.33425,3.18163 10.8247,10.295838 12.62507,13.838383 1.45898,2.870791 1.66429,3.011011 4.76525,3.254461 4.79039,0.37608 10.59642,3.52327 14.98194,8.12102 7.61445,7.98296 9.39116,16.48595 5.22541,25.00789 -1.14842,2.34936 -2.64542,4.9605 -3.32667,5.80253 l -1.23864,1.53097 -1.82283,-2.75449 c -1.1837,-1.78869 -2.04742,-2.52989 -2.46338,-2.11393 -0.41595,0.41595 -0.0503,1.5102 1.04264,3.12086 5.73897,8.45684 3.02964,21.35205 -6.48525,30.86694 -5.7394,5.7394 -10.30167,7.88439 -21.07318,9.90777 -0.97474,0.18309 -1.61958,1.29242 -2.49576,4.29348 -0.6498,2.22563 -1.33875,3.88929 -1.53101,3.69703 -0.19226,-0.19226 -1.98117,0.79339 -3.97537,2.19033 -1.9942,1.39694 -5.00178,2.9925 -6.68353,3.54568 -7.04724,2.31809 -18.03951,2.90178 -25.73526,1.36654 z"
       style="opacity:1;fill:#ffffff;fill-opacity:1;fill-rule:evenodd;stroke:#fffffa;stroke-width:0.65716243;stroke-linecap:square;stroke-linejoin:miter;stroke-miterlimit:4;stroke-dasharray:none;stroke-opacity:1" />
  </g>
</svg>
