<?xml version="1.0" encoding="UTF-8" standalone="no"?>
<!-- Created with Inkscape (http://www.inkscape.org/) -->

<svg
   xmlns:dc="http://purl.org/dc/elements/1.1/"
   xmlns:cc="http://creativecommons.org/ns#"
   xmlns:rdf="http://www.w3.org/1999/02/22-rdf-syntax-ns#"
   xmlns:svg="http://www.w3.org/2000/svg"
   xmlns="http://www.w3.org/2000/svg"
   xmlns:sodipodi="http://sodipodi.sourceforge.net/DTD/sodipodi-0.dtd"
   xmlns:inkscape="http://www.inkscape.org/namespaces/inkscape"
   width="210mm"
   height="297mm"
   viewBox="0 0 744.09448819 1052.3622047"
   id="svg5609"
   version="1.1"
   inkscape:version="0.91 r13725"
   sodipodi:docname="numbers.svg">
  <defs
     id="defs5611" />
  <sodipodi:namedview
     id="base"
     pagecolor="#ffffff"
     bordercolor="#666666"
     borderopacity="1.0"
     inkscape:pageopacity="0.0"
     inkscape:pageshadow="2"
     inkscape:zoom="0.7"
     inkscape:cx="244.75098"
     inkscape:cy="270.36954"
     inkscape:document-units="px"
     inkscape:current-layer="layer1"
     showgrid="false"
     inkscape:window-width="1280"
     inkscape:window-height="737"
     inkscape:window-x="-8"
     inkscape:window-y="-8"
     inkscape:window-maximized="1" />
  <metadata
     id="metadata5614">
    <rdf:RDF>
      <cc:Work
         rdf:about="">
        <dc:format>image/svg+xml</dc:format>
        <dc:type
           rdf:resource="http://purl.org/dc/dcmitype/StillImage" />
        <dc:title />
      </cc:Work>
    </rdf:RDF>
  </metadata>
  <g
     inkscape:label="Layer 1"
     inkscape:groupmode="layer"
     id="layer1">
    <path
       style="fill:#ff5500;fill-opacity:1;fill-rule:evenodd;stroke:#000000;stroke-width:4.3;stroke-linecap:butt;stroke-linejoin:miter;stroke-miterlimit:4;stroke-dasharray:none;stroke-opacity:1"
       d="m 82.65004,84.743412 c 15.705394,-4.40162 52.65376,-8.665136 53.91436,6.397369 8.23764,98.428469 -5.50587,166.685839 -3.75563,241.097279 21.62348,-2.08033 50.85935,1.38989 63.86125,1.29022 -9.35699,25.52055 2.55032,34.40543 -9.02912,41.03406 -10.58909,6.0617 -101.201815,-5.49397 -153.980589,-4.53474 -13.305438,0.24182 -5.037474,-39.75845 8.262369,-39.30112 19.675624,0.67657 35.278921,4.41332 51.827617,2.26737 4.073756,-80.39773 9.174273,-199.34492 -1.502254,-207.65353 -8.785788,-6.83721 -32.642399,3.24801 -58.587732,4.34579 0.921747,-26.18504 28.634504,-38.86475 48.989729,-44.942698 z"
       id="path6157"
       inkscape:connector-curvature="0"
       sodipodi:nodetypes="csccssscscc"
       inkscape:export-filename="C:\Users\joers\Documents\git\src\github.com\astropuffin\surfwars\Assets\art\one.png"
       inkscape:export-xdpi="452.31"
       inkscape:export-ydpi="452.31" />
    <path
       style="fill:#ff5500;fill-opacity:1;fill-rule:evenodd;stroke:#000000;stroke-width:4.3;stroke-linecap:butt;stroke-linejoin:miter;stroke-miterlimit:4;stroke-dasharray:none;stroke-opacity:1"
       d="m 294.69382,88.098423 c 27.41847,-9.543664 69.22677,-8.249182 84.07711,19.205057 69.43202,128.36097 -86.27559,201.79117 -75.87546,220.70474 6.59486,11.99335 65.51819,-4.78592 99.67418,3.63381 -12.94585,19.28564 0.53304,42.85563 -11.66716,42.39439 -43.04089,-1.62726 -117.61114,15.11702 -152.54874,-6.05635 5.53666,-64.21734 50.60006,-97.70871 90.77155,-137.63666 57.83483,-57.48422 30.95646,-135.961564 -94.53166,-75.16657 -10.22738,-50.93427 33.98899,-57.989785 60.10018,-67.078417 z"
       id="path6706"
       inkscape:connector-curvature="0"
       sodipodi:nodetypes="asscscsca"
       inkscape:export-filename="C:\Users\joers\Documents\git\src\github.com\astropuffin\surfwars\Assets\art\two.png"
       inkscape:export-xdpi="452.31"
       inkscape:export-ydpi="452.31" />
    <path
       style="fill:#ff5500;fill-opacity:1;fill-rule:evenodd;stroke:#000000;stroke-width:4.3;stroke-linecap:butt;stroke-linejoin:miter;stroke-miterlimit:4;stroke-dasharray:none;stroke-opacity:1"
       d="m 491.00766,98.667446 c 95.97962,-22.6237 145.06978,18.183984 143.89475,66.738184 -1.17521,48.56209 -77.23971,59.66623 -77.18493,73.19674 0.0544,13.45824 77.95079,29.60298 79.94153,57.58861 4.61611,64.89212 -95.91922,83.92481 -168.15287,91.22682 7.9039,-11.02609 -6.03725,-25.97447 4.41056,-32.02357 27.08077,-15.67928 118.28156,-4.6486 116.88004,-50.59187 -1.03853,-34.04423 -100.03608,-46.09042 -99.23777,-62.97071 1.29904,-27.46784 95.05831,-27.73112 95.92984,-80.7317 0.74207,-45.12721 -41.90039,-34.98374 -103.64833,-24.21951 13.78303,-18.29918 -6.48593,-31.02667 7.16718,-38.212994 z"
       id="path6710"
       inkscape:connector-curvature="0"
       sodipodi:nodetypes="cssscsssscc"
       inkscape:export-filename="C:\Users\joers\Documents\git\src\github.com\astropuffin\surfwars\Assets\art\three.png"
       inkscape:export-xdpi="452.31"
       inkscape:export-ydpi="452.31" />
    <path
       style="fill:#ff5500;fill-opacity:1;fill-rule:evenodd;stroke:#000000;stroke-width:4.30000019;stroke-linecap:butt;stroke-linejoin:miter;stroke-miterlimit:4;stroke-dasharray:none;stroke-opacity:1"
       d="m 142.96234,427.61504 c -36.22272,1.53889 -116.963711,91.619 -106.513337,142.75459 2.480402,12.13705 71.130377,11.47113 102.100927,4.08985 -0.77311,42.96509 -4.01741,94.85611 -3.61434,147.52653 13.66081,-10.09222 22.86959,2.21024 31.9709,-6.51775 7.66989,-7.35526 -1.68019,-125.8975 -0.0254,-147.23693 17.76299,-3.50324 17.66196,-1.56483 38.60009,-2.90404 -4.97739,-12.80179 2.10885,-17.97204 -3.02387,-22.76529 -4.71089,-4.39932 -15.35206,-4.05806 -35.35248,0.10446 -1.86253,-49.58172 4.19344,-88.04731 -7.37862,-105.98667 -4.25578,-6.59743 -10.05599,-9.34974 -16.7639,-9.06475 z m -3.21301,32.8811 c 0.13002,9.5e-4 0.24965,0.0211 0.35752,0.0623 5.28588,2.01858 1.13764,68.36717 -1.3055,86.79338 -10.59156,5.59406 -69.255484,6.47146 -73.280764,-1.58343 -3.349751,-6.70311 66.037674,-85.33116 74.228744,-85.27221 z"
       id="path6712"
       inkscape:connector-curvature="0"
       sodipodi:nodetypes="csccsccscscccccscc"
       inkscape:export-filename="C:\Users\joers\Documents\git\src\github.com\astropuffin\surfwars\Assets\art\four.png"
       inkscape:export-xdpi="452.31"
       inkscape:export-ydpi="452.31" />
    <path
       style="fill:#ff5500;fill-opacity:1;fill-rule:evenodd;stroke:#000000;stroke-width:4.30000019;stroke-linecap:butt;stroke-linejoin:miter;stroke-miterlimit:4;stroke-dasharray:none;stroke-opacity:1"
       d="m 408.29717,442.61499 c -5.66931,-13.8214 -134.12828,-17.97584 -140.38236,-11.13267 -8.33528,9.12044 -13.6775,124.54267 -3.0081,130.332 28.31846,15.36589 118.17143,8.22135 120.08664,52.6619 2.05891,47.77474 -114.91717,56.03299 -123.72705,67.97325 -7.02138,9.51626 15.41922,24.11567 2.36649,41.47641 52.72355,2.07828 166.38251,-42.17394 166.07129,-109.44966 -0.22843,-49.37676 -84.32074,-62.46082 -122.62518,-79.15082 -6.28084,-2.7367 -10.93698,-60.2029 -2.78182,-68.49076 10.33407,-10.50224 76.18308,7.95744 100.45886,7.95981 -5.65596,-13.65501 7.58368,-22.32424 3.54123,-32.17946 z"
       id="path6717"
       inkscape:connector-curvature="0"
       sodipodi:nodetypes="sssascasscs"
       inkscape:export-filename="C:\Users\joers\Documents\git\src\github.com\astropuffin\surfwars\Assets\art\five.png"
       inkscape:export-xdpi="452.31"
       inkscape:export-ydpi="452.31" />
    <path
       style="fill:#ff5500;fill-opacity:1;fill-rule:evenodd;stroke:#000000;stroke-width:4.30000019;stroke-linecap:butt;stroke-linejoin:miter;stroke-miterlimit:4;stroke-dasharray:none;stroke-opacity:1"
       d="m 564.66483,421.75616 c -108.347,0.27146 -114.83897,294.8555 3.14062,294.8555 117.97958,0 105.20638,-295.12696 -3.14062,-294.8555 z m 0.75976,75.10938 c 54.1735,-0.13573 60.56012,147.42773 1.57032,147.42773 -58.98978,0 -55.74382,-147.292 -1.57032,-147.42773 z"
       id="path6719"
       inkscape:connector-curvature="0"
       inkscape:export-filename="C:\Users\joers\Documents\git\src\github.com\astropuffin\surfwars\Assets\art\zero.png"
       inkscape:export-xdpi="452.31"
       inkscape:export-ydpi="452.31" />
    <g
       id="g4153"
       inkscape:export-filename="C:\Users\joers\Documents\git\src\github.com\astropuffin\surfwars\Assets\art\win.png"
       inkscape:export-xdpi="452.31"
       inkscape:export-ydpi="452.31">
      <path
         sodipodi:nodetypes="cssccszszzc"
         inkscape:connector-curvature="0"
         id="path4147"
         d="m 70.927479,764.13625 c 2.742528,62.42724 19.020133,283.46325 42.748091,284.59425 21.10492,1.006 36.38691,-93.50035 47.25872,-94.86295 14.85099,-1.8613 23.05333,93.71755 41.48666,87.83605 24.95323,-38.2922 46.90752,-246.83473 50.14475,-283.18344 -12.21293,7.04947 -18.77215,-10.36464 -27.77802,2.10807 -9.58351,13.27272 -13.29926,192.50836 -27.05651,209.40115 -13.75726,16.89279 -15.27262,-61.66151 -37.51839,-63.24197 -20.53037,-1.45855 -33.31336,85.41143 -44.01193,84.32262 -10.69858,-1.08881 -16.304157,-215.59568 -22.330468,-224.35611 -6.026312,-8.76041 -10.424887,6.9052 -22.942903,-2.61767 z"
         style="fill:#ff5500;fill-opacity:1;fill-rule:evenodd;stroke:#000000;stroke-width:7.2462945;stroke-linecap:butt;stroke-linejoin:miter;stroke-miterlimit:4;stroke-dasharray:none;stroke-opacity:1" />
      <path
         sodipodi:nodetypes="scscs"
         inkscape:connector-curvature="0"
         id="path4149"
         d="m 272.84592,757.29026 c 3.86956,-3.75581 16.59042,10.42967 26.42686,4.40469 -0.83746,88.07642 -15.44513,272.44095 -21.0012,277.28735 -5.7253,4.9941 -12.51383,-4.6377 -19.57742,3.2036 -1.35846,-15.2978 8.02926,-278.95319 14.15176,-284.89564 z"
         style="fill:#ff5500;fill-opacity:1;fill-rule:evenodd;stroke:#000000;stroke-width:8.57134819;stroke-linecap:butt;stroke-linejoin:miter;stroke-miterlimit:4;stroke-dasharray:none;stroke-opacity:1" />
      <path
         sodipodi:nodetypes="cssscsssc"
         inkscape:connector-curvature="0"
         id="path4151"
         d="m 310.83828,1044.2311 c -2.20113,-109.84534 0.86455,-282.95941 43.09016,-287.08121 28.71005,-2.8025 59.32083,231.78182 71.48495,231.13638 15.87904,-0.84255 12.07614,-196.74576 21.97032,-208.75188 7.12185,-8.64203 22.20479,9.40904 38.61325,-4.47691 -24.4936,74.95327 -7.52597,263.07762 -53.16317,270.29282 -48.21548,7.6228 -64.47357,-211.71645 -81.14382,-212.09312 -22.18128,-0.50121 5.47939,191.75822 -12.31145,212.65272 -6.17814,7.256 -9.10592,-11.6258 -28.54024,-1.6788 z"
         style="fill:#ff5500;fill-opacity:1;fill-rule:evenodd;stroke:#000000;stroke-width:9.52859402;stroke-linecap:butt;stroke-linejoin:miter;stroke-miterlimit:4;stroke-dasharray:none;stroke-opacity:1" />
    </g>
  </g>
</svg>
