<?xml version="1.0" encoding="utf-8"?>
<!-- Generator: Adobe Illustrator 19.2.1, SVG Export Plug-In . SVG Version: 6.00 Build 0)  -->
<svg version="1.1" id="Layer_1" xmlns="http://www.w3.org/2000/svg" xmlns:xlink="http://www.w3.org/1999/xlink" x="0px" y="0px"
	 viewBox="0 0 339.1 174.3" style="enable-background:new 0 0 339.1 174.3;" xml:space="preserve">
<style type="text/css">
	.st0{fill:#C167A9;stroke:#010101;stroke-width:4.3;}
	.st1{fill:#70C599;stroke:#010101;stroke-width:4;}
	.st2{fill:#70C599;stroke:#010101;stroke-width:4.3;}
	.st3{fill:#C167A9;stroke:#010101;stroke-width:4;}
	.st4{fill:#EFE7CE;stroke:#000000;stroke-width:4.3;stroke-miterlimit:10;}
	.st5{stroke:#000000;stroke-width:4.3;stroke-miterlimit:10;}
</style>
<g>
	<path class="st0" d="M2.6,137.5c-2.7-7.7,5.8-23.1,25.9-32.8c21-10.1,239.6-90.5,254.6-90.5c15.2,0,58.9,16.2,53.3,37.2
		c-4.5,17-177.9,95.2-294.1,101.8C30,153.9,6.1,147.5,2.6,137.5L2.6,137.5z"/>
	<path class="st1" d="M6.6,140.6c0,0,4.6-10.4,21.1-19.8S309.8,21,309.8,21l15.4,9.2C325.2,30.2,56,133,30.9,137L6.6,140.6z"/>
</g>
<g>
	<path class="st2" d="M336.4,137.5c-3.5,10-27.4,16.4-39.7,15.7C180.5,146.6,7.2,68.4,2.6,51.3C-2.9,30.4,40.8,14.1,56,14.2
		c15,0,233.5,80.4,254.6,90.5C330.6,114.4,339.1,129.8,336.4,137.5L336.4,137.5z"/>
	<path class="st3" d="M308.1,137C283,133,13.8,30.2,13.8,30.2L29.2,21c0,0,265.6,90.4,282.1,99.8c16.5,9.4,21.1,19.8,21.1,19.8
		L308.1,137z"/>
</g>
<g>
	<path class="st4" d="M231.6,29.2c20.4,28.5-0.4,59.1-2.6,64.6s-0.9,11,2,15.3c2.9,4.4,16.5,25.1-16.8,30.7
		c-19.7,3.3,0.8,27-49.6,27c-41.6,0-29.6-22.1-36.1-24c-11.7-3.3-30.7-15.1-23.6-26.1s5.5-16.3,2.7-21.2
		c-2.7-4.9-15.2-40.2,2.9-64.5C137.9-5.7,204.6-8.5,231.6,29.2z"/>
	<path class="st4" d="M141.1,163.3h-2.9c-1,0-1.8-0.8-1.8-1.8v-10.1c0-1,0.8-1.8,1.8-1.8h2.9c1,0,1.8,0.8,1.8,1.8v10
		C143,162.4,142.2,163.3,141.1,163.3z"/>
	<path class="st4" d="M198.3,161h-2.6c-0.9,0-1.7-0.8-1.7-1.7v-8.1c0-0.9,0.8-1.7,1.7-1.7h2.6c0.9,0,1.7,0.8,1.7,1.7v8.1
		C199.9,160.2,199.2,161,198.3,161z"/>
	<path class="st4" d="M151.9,168.6h-4.3c-1.5,0-2.8-1.2-2.8-2.8v-10.3c0-1.5,1.2-2.8,2.8-2.8h4.3c1.5,0,2.8,1.2,2.8,2.8v10.3
		C154.6,167.4,153.4,168.6,151.9,168.6z"/>
	<path class="st4" d="M186.8,165.9h4.3c1.5,0,2.8-1.2,2.8-2.8v-7.9c0-1.5-1.2-2.8-2.8-2.8h-4.3c-1.5,0-2.8,1.2-2.8,2.8v7.9
		C184.1,164.6,185.3,165.9,186.8,165.9z"/>
	<path class="st4" d="M165,172.2h-5.2c-1.8,0-3.3-1.5-3.3-3.3v-11.4c0-1.8,1.5-3.3,3.3-3.3h5.2c1.8,0,3.3,1.5,3.3,3.3v11.4
		C168.3,170.7,166.8,172.2,165,172.2z"/>
	<path class="st4" d="M174.5,171.5h5.9c2.1,0,3.8-1.7,3.8-3.8v-11.9c0-2.1-1.7-3.8-3.8-3.8h-5.9c-2.1,0-3.8,1.7-3.8,3.8v11.9
		C170.7,169.8,172.4,171.5,174.5,171.5z"/>
	<path class="st5" d="M161.7,92.5c0,3.8-3,16.4-12.8,18.1c-9.8,1.6-25.6-7.7-28-9c-2.4-1.4-5-5.7-3.8-17c0.9-8.3,23.6-7.4,34.4-3.6
		S161.7,92.5,161.7,92.5z"/>
	<path class="st5" d="M175.4,92.5c0,3.8,3,16.4,12.8,18.1c9.8,1.6,25.6-7.7,28-9c2.4-1.4,5-5.7,3.8-17c-0.9-8.3-23.6-7.4-34.4-3.6
		S175.4,92.5,175.4,92.5z"/>
	<path class="st5" d="M168.3,107.2c4.1-1.1,13.6,13.8,12.5,20.9c-1.1,7.1-17.5,10.4-24.4,3.8C149.6,125.4,160.2,109.3,168.3,107.2z"
		/>
</g>
</svg>
