<?xml version="1.0" encoding="utf-8"?>
<!-- Generator: Adobe Illustrator 19.2.1, SVG Export Plug-In . SVG Version: 6.00 Build 0)  -->
<svg version="1.1" id="Layer_1" xmlns="http://www.w3.org/2000/svg" xmlns:xlink="http://www.w3.org/1999/xlink" x="0px" y="0px"
	 viewBox="0 0 65.8 26.1" style="enable-background:new 0 0 65.8 26.1;" xml:space="preserve">
<style type="text/css">
	.st0{fill:#45385B;}
</style>
<path class="st0" d="M62.3,7.4L62.3,7.4C62.4,7.4,62.4,7.4,62.3,7.4z"/>
<path class="st0" d="M12.2,15.1l2.1,3.5l3.3-3.7l2.6,2.9l2.3-3.9l2.4,2.5c0,0,3.2-0.8,4.2-0.4c3.1,1.4,10.1,8.9,10.1,8.9
	C77.5,31.8,63.2,7.3,63.2,7.3L63,7.2C62.5,7,59.6,6,42.3,3.1C22.4-0.4,1.3-1,0.3,1.6c-1.4,3.3,2.6,9.2,10.1,15.2
	C10.9,17,12.2,15.1,12.2,15.1z"/>
</svg>
