<?xml version="1.0" encoding="utf-8"?>
<!-- Generator: Adobe Illustrator 19.2.1, SVG Export Plug-In . SVG Version: 6.00 Build 0)  -->
<svg version="1.1" id="Layer_1" xmlns="http://www.w3.org/2000/svg" xmlns:xlink="http://www.w3.org/1999/xlink" x="0px" y="0px"
	 viewBox="0 0 143.1 62.4" style="enable-background:new 0 0 143.1 62.4;" xml:space="preserve">
<style type="text/css">
	.st0{fill:#45385B;}
</style>
<path class="st0" d="M49.8,17.2L49.8,17.2C49.9,17.2,49.9,17.2,49.8,17.2z"/>
<path class="st0" d="M141.2,2.5c-13,5-21.6,18.6-21.6,18.6c-14.2,1.8-49.8-0.3-49.8-0.3s-2.4-2.1,2.1-10.1S74.8,0,74.8,0
	C60.2,5.6,49.9,17.2,49.9,17.2s8.1,7.3-23.1,17.4c0,0-4.5-2.6-7.7-3.4c-1-0.2-4,1.2-4,1.2l-2.9-2l-1.5,4.3l-3.1-2.3l-2.5,4.3l-2.7-3
	c0,0-1.7,3.3-2.4,3.2c5.7,3,12.8,5.8,20.7,7.8c19.6,5,56.2,0.9,56.2,0.9c1.8,3.6,13.6,12.2,15.4,12.8c1.8,0.6,3.9-1.2,2.1-4.2
	c-1.8-3-1.8-9.5-1.8-9.5l26.1-7c0,0,7.4,20.8,15.8,24.4c3.2,1.4,3.2-2.1,2.7-12.2c-0.2-5.2-1.7-7.5-2.5-15.7
	c1.1-9.3,5.7-14.6,6.3-17C141.8,15,145.1,1,141.2,2.5z"/>
</svg>
