<?xml version="1.0" encoding="UTF-8" standalone="no"?>
<!-- Created with Inkscape (http://www.inkscape.org/) -->

<svg
   xmlns:dc="http://purl.org/dc/elements/1.1/"
   xmlns:cc="http://creativecommons.org/ns#"
   xmlns:rdf="http://www.w3.org/1999/02/22-rdf-syntax-ns#"
   xmlns:svg="http://www.w3.org/2000/svg"
   xmlns="http://www.w3.org/2000/svg"
   xmlns:sodipodi="http://sodipodi.sourceforge.net/DTD/sodipodi-0.dtd"
   xmlns:inkscape="http://www.inkscape.org/namespaces/inkscape"
   width="210mm"
   height="297mm"
   viewBox="0 0 744.09448819 1052.3622047"
   id="svg2"
   version="1.1"
   inkscape:version="0.91 r13725"
   sodipodi:docname="surfer2.svg"
   inkscape:export-filename="C:\Users\joers\Documents\git\src\github.com\astropuffin\surfwars\Assets\art\surfer.png"
   inkscape:export-xdpi="452.31"
   inkscape:export-ydpi="452.31">
  <defs
     id="defs4" />
  <sodipodi:namedview
     id="base"
     pagecolor="#ffffff"
     bordercolor="#666666"
     borderopacity="1.0"
     inkscape:pageopacity="0.0"
     inkscape:pageshadow="2"
     inkscape:zoom="0.7"
     inkscape:cx="23.48816"
     inkscape:cy="629.36446"
     inkscape:document-units="px"
     inkscape:current-layer="layer1"
     showgrid="false"
     inkscape:window-width="1280"
     inkscape:window-height="737"
     inkscape:window-x="-8"
     inkscape:window-y="-8"
     inkscape:window-maximized="1" />
  <metadata
     id="metadata7">
    <rdf:RDF>
      <cc:Work
         rdf:about="">
        <dc:format>image/svg+xml</dc:format>
        <dc:type
           rdf:resource="http://purl.org/dc/dcmitype/StillImage" />
        <dc:title></dc:title>
      </cc:Work>
    </rdf:RDF>
  </metadata>
  <g
     inkscape:label="Layer 1"
     inkscape:groupmode="layer"
     id="layer1">
    <path
       style="fill:#ffc195;fill-opacity:1;fill-rule:evenodd;stroke:#000000;stroke-width:4.30000019;stroke-linecap:butt;stroke-linejoin:miter;stroke-miterlimit:5;stroke-dasharray:none;stroke-opacity:1"
       d="m 239.99698,562.71604 -33.95913,138.3017 c 0,0 -25.74199,20.06518 -22.61373,23.86837 3.12825,3.80318 9.3843,-3.7519 9.3843,-3.7519 0,0 -8.74233,7.17057 -5.19301,10.47906 3.54932,3.30848 10.61693,-5.1795 10.61693,-5.1795 0,0 -7.94528,8.02668 -3.94848,11.29868 3.9968,3.272 9.64566,-6.21021 9.64566,-6.21021 0,0 -6.64384,7.60913 -2.06397,10.38667 4.57988,2.77754 9.61771,-6.8256 9.61771,-6.8256 0,0 -7.98013,11.32866 -0.0633,13.2739 5.44127,1.33698 10.95679,-19.12944 17.44919,-27.88752 8.57928,-11.57322 5.10817,-8.83951 6.00428,-18.65505 1.88054,-20.59833 39.28828,-134.49417 39.28828,-134.49417"
       id="path4192-7-1"
       inkscape:connector-curvature="0"
       sodipodi:nodetypes="cczczczczcsssc" />
    <path
       style="fill:#ffc195;fill-opacity:1;fill-rule:evenodd;stroke:#000000;stroke-width:4.30000019;stroke-linecap:butt;stroke-linejoin:miter;stroke-miterlimit:5;stroke-dasharray:none;stroke-opacity:1"
       d="m 343.25479,563.03086 33.95913,138.3017 c 0,0 25.74199,20.06518 22.61373,23.86837 -3.12825,3.80318 -9.3843,-3.7519 -9.3843,-3.7519 0,0 8.74233,7.17057 5.19301,10.47906 -3.54932,3.30848 -10.61693,-5.1795 -10.61693,-5.1795 0,0 7.94528,8.02668 3.94848,11.29868 -3.9968,3.272 -9.64566,-6.21021 -9.64566,-6.21021 0,0 6.64384,7.60913 2.06397,10.38667 -4.57988,2.77754 -9.61771,-6.8256 -9.61771,-6.8256 0,0 7.98013,11.32866 0.0633,13.2739 -5.44127,1.33698 -10.95679,-19.12944 -17.44919,-27.88752 -8.57928,-11.57322 -5.10817,-8.83951 -6.00428,-18.65505 -1.88054,-20.59833 -39.28828,-134.49417 -39.28828,-134.49417"
       id="path4192-7"
       inkscape:connector-curvature="0"
       sodipodi:nodetypes="cczczczczcsssc" />
    <path
       style="fill:#ffc195;fill-opacity:1;fill-rule:evenodd;stroke:#000000;stroke-width:4.30000019;stroke-linecap:butt;stroke-linejoin:miter;stroke-miterlimit:5;stroke-dasharray:none;stroke-opacity:1"
       d="m 304.96576,409.86221 149.64286,-7.14286 c 0,0 1.71119,-23.44202 10,-25.71429 8.72871,-2.39286 6.0281,10.89812 6.0281,10.89812 0,0 24.75666,-13.66583 32.8033,-8.43402 7.96951,5.18168 -20.85171,16.55113 -20.85171,16.55113 0,0 28.9301,-6.38625 29.16316,2.77049 0.23526,9.24295 -28.40554,7.22951 -28.40554,7.22951 0,0 29.38591,5.68174 24.72951,11.71701 -4.2973,5.56983 -25.48713,-0.96682 -25.48713,-0.96682 0,0 19.45333,7.63358 12.92585,11.8216 -6.52439,4.18603 -34.83411,-11.22987 -34.83411,-11.22987 l -156.78572,12.85714"
       id="path4192"
       inkscape:connector-curvature="0"
       sodipodi:nodetypes="ccscscscscscc" />
    <path
       style="fill:#ffc195;fill-opacity:1;fill-rule:evenodd;stroke:#000000;stroke-width:4.30000019;stroke-linecap:butt;stroke-linejoin:miter;stroke-miterlimit:5;stroke-dasharray:none;stroke-opacity:1"
       d="m 262.05467,405.59155 -149.64285,-7.14286 c 0,0 -1.71119,-23.44202 -10,-25.71429 -8.728713,-2.39286 -6.028103,10.89812 -6.028103,10.89812 0,0 -24.75667,-13.66583 -32.8033,-8.43402 -7.96951,5.18168 20.8517,16.55113 20.8517,16.55113 0,0 -28.9301,-6.38625 -29.16316,2.77049 -0.23525,9.24295 28.40555,7.22951 28.40555,7.22951 0,0 -29.38592,5.68174 -24.72951,11.71701 4.2973,5.56983 25.48712,-0.96682 25.48712,-0.96682 0,0 -19.45332,7.63358 -12.92585,11.8216 6.5244,4.18603 34.834123,-11.22987 34.834123,-11.22987 l 156.78571,12.85714"
       id="path4192-9"
       inkscape:connector-curvature="0"
       sodipodi:nodetypes="ccscscscscscc" />
    <g
       id="g7298"
       inkscape:export-filename="C:\Users\joers\Documents\git\src\github.com\astropuffin\surfwars\Assets\art\ponytail.png"
       inkscape:export-xdpi="452.31"
       inkscape:export-ydpi="452.31">
      <path
         sodipodi:nodetypes="sscs"
         inkscape:connector-curvature="0"
         id="path7296"
         d="m 379.57197,220.05746 c -1.30389,-8.54766 14.94782,-12.05776 22.06889,-7.15337 11.22326,7.72962 5.60233,31.52241 38.53312,45.73076 -32.34396,-0.42328 -57.70593,-19.59218 -60.60201,-38.57739 z"
         style="fill:#ff4be4;fill-opacity:1;fill-rule:evenodd;stroke:#000000;stroke-width:4.30000019;stroke-linecap:butt;stroke-linejoin:miter;stroke-miterlimit:10;stroke-dasharray:none;stroke-opacity:1" />
      <path
         sodipodi:nodetypes="zzz"
         inkscape:connector-curvature="0"
         id="path7294"
         d="m 373.29614,229.79703 c -5.10114,-9.32731 8.60261,-13.37418 12.5,-5.53572 3.89738,7.83846 -7.39886,14.86302 -12.5,5.53572 z"
         style="fill:#ff4be4;fill-opacity:1;fill-rule:evenodd;stroke:#000000;stroke-width:4.30000019;stroke-linecap:butt;stroke-linejoin:miter;stroke-miterlimit:4;stroke-dasharray:none;stroke-opacity:1" />
    </g>
    <g
       id="g7302"
       inkscape:export-filename="C:\Users\joers\Documents\git\src\github.com\astropuffin\surfwars\Assets\art\torso2.png"
       inkscape:export-xdpi="452.31"
       inkscape:export-ydpi="452.31">
      <path
         sodipodi:nodetypes="ccccc"
         inkscape:connector-curvature="0"
         id="path4226-4"
         d="m 328.0128,525.86745 -7.32143,-28.74999 -65.57326,0.4438 c 2.5,11.96428 -1.1686,20.87799 -6.34717,30.34227 z"
         style="fill:#ffc195;fill-opacity:1;fill-rule:evenodd;stroke:#000000;stroke-width:4.30000019;stroke-linecap:butt;stroke-linejoin:miter;stroke-miterlimit:4;stroke-dasharray:none;stroke-opacity:1" />
      <g
         transform="matrix(-1,0,0,1,612.46576,0)"
         id="g4243">
        <g
           id="g4228">
          <path
             inkscape:connector-curvature="0"
             id="path4226"
             d="m 304.28571,405.93363 5,-39.28571 21.42857,1.42857 7.5,40.71429 z"
             style="fill:#ffc195;fill-opacity:1;fill-rule:evenodd;stroke:#000000;stroke-width:4.30000019;stroke-linecap:butt;stroke-linejoin:miter;stroke-miterlimit:4;stroke-dasharray:none;stroke-opacity:1" />
          <path
             sodipodi:nodetypes="ccccccccccc"
             inkscape:connector-curvature="0"
             id="path4209"
             d="m 248.49753,390.20721 c 0,0 34.93068,-4.5741 50.00255,-4.54569 12.04141,8.61471 32.745,8.88095 41.41625,1.01016 17.25754,0.21043 60.10407,4.04061 60.10407,4.04061 l 1e-5,39.39595 -31.31473,2.02031 c 7.67857,29.10714 -11.6483,16.50636 -7.00544,74.3635 l -77.40793,-1.51523 c 7.32143,-56.96428 -12.6637,-42.84828 -3.19942,-74.63399 l -28.55475,1.78571 z"
             style="fill:#00ffa5;fill-opacity:1;fill-rule:evenodd;stroke:#000000;stroke-width:4.30000019;stroke-linecap:butt;stroke-linejoin:miter;stroke-miterlimit:4;stroke-dasharray:none;stroke-opacity:1" />
        </g>
        <path
           style="fill:#ffff00;fill-opacity:1;fill-rule:evenodd;stroke:#000000;stroke-width:2.0999999;stroke-linecap:butt;stroke-linejoin:miter;stroke-miterlimit:4;stroke-dasharray:none;stroke-opacity:1"
           d="m 316.19805,428.84555 21.97082,0.75761 -12.62691,14.89975 6.566,0 -20.96068,27.52666 8.58631,-22.98097 -6.31346,-0.25254 z"
           id="path4241"
           inkscape:connector-curvature="0"
           sodipodi:nodetypes="cccccccc" />
      </g>
      <path
         sodipodi:nodetypes="ccccccccc"
         inkscape:connector-curvature="0"
         id="path4249"
         d="m 330.28567,517.12928 -84.81602,2.19889 c -11.07142,15.17857 -12.219,20.06818 -13.469,45.78247 l 52.17758,0.29618 2.27951,-4.26411 6.13892,-0.15767 4.29795,4.7427 50.15049,-1.48458 c -1.78572,-26.96429 -4.08086,-36.22102 -16.75943,-47.11388 z"
         style="fill:#00ffa5;fill-opacity:1;fill-rule:evenodd;stroke:#000000;stroke-width:4.30000019;stroke-linecap:butt;stroke-linejoin:miter;stroke-miterlimit:4;stroke-dasharray:none;stroke-opacity:1" />
      <path
         sodipodi:nodetypes="zzz"
         inkscape:connector-curvature="0"
         id="path4274"
         d="m 287.07037,512.3094 c -2.00679,0.0134 -2.0871,2.02327 -0.0453,2.0923 2.0418,0.069 2.05209,-2.10572 0.0453,-2.0923 z"
         style="fill:none;fill-rule:evenodd;stroke:#000000;stroke-width:2.0999999;stroke-linecap:butt;stroke-linejoin:miter;stroke-miterlimit:4;stroke-dasharray:none;stroke-opacity:1" />
    </g>
    <g
       id="g4232"
       transform="matrix(-1,0,0,1,612.46576,0)"
       inkscape:export-filename="C:\Users\joers\Documents\git\src\github.com\astropuffin\surfwars\Assets\art\head2.png"
       inkscape:export-xdpi="452.31"
       inkscape:export-ydpi="452.31">
      <ellipse
         ry="82.832512"
         rx="83.842659"
         cy="292.72748"
         cx="322.23865"
         id="path4136"
         style="opacity:1;fill:#ffc195;fill-opacity:1;fill-rule:evenodd;stroke:#000000;stroke-width:4.30000019;stroke-linecap:square;stroke-linejoin:miter;stroke-miterlimit:4;stroke-dasharray:none;stroke-opacity:1" />
      <path
         sodipodi:nodetypes="czcsc"
         inkscape:connector-curvature="0"
         id="path4150"
         d="m 250.51783,334.64883 c 4.63965,-47.55746 17.45113,-68.52769 41.41626,-85.86298 23.96513,-17.33529 85.86296,-20.70812 85.86296,-20.70812 -4.78915,-25.60213 -118.45405,-44.26734 -141.38418,1.76649 -10.74737,21.5761 -16.79866,50.84173 14.10496,104.80461 z"
         style="fill:#ff4be4;fill-opacity:1;fill-rule:evenodd;stroke:#000000;stroke-width:4.30000019;stroke-linecap:butt;stroke-linejoin:miter;stroke-miterlimit:4;stroke-dasharray:none;stroke-opacity:1" />
      <ellipse
         ry="10"
         rx="10.535714"
         cy="273.79077"
         cx="328.75"
         id="path4152"
         style="opacity:1;fill:#fffcff;fill-opacity:1;fill-rule:evenodd;stroke:#000000;stroke-width:4.30000019;stroke-linecap:square;stroke-linejoin:miter;stroke-miterlimit:4;stroke-dasharray:none;stroke-opacity:1" />
      <ellipse
         ry="10"
         rx="10.178571"
         cy="262.00507"
         cx="376.42856"
         id="path4152-8"
         style="opacity:1;fill:#fffcff;fill-opacity:1;fill-rule:evenodd;stroke:#000000;stroke-width:4.30000019;stroke-linecap:square;stroke-linejoin:miter;stroke-miterlimit:4;stroke-dasharray:none;stroke-opacity:1" />
      <ellipse
         ry="3.3928571"
         rx="3.2142856"
         cy="275.04077"
         cx="332.85715"
         id="path4171"
         style="opacity:1;fill:#000000;fill-opacity:1;fill-rule:evenodd;stroke:#000000;stroke-width:4.30000019;stroke-linecap:square;stroke-linejoin:miter;stroke-miterlimit:4;stroke-dasharray:none;stroke-opacity:1" />
      <ellipse
         ry="3.3928571"
         rx="3.2142856"
         cy="263.07651"
         cx="379.64285"
         id="path4171-3"
         style="opacity:1;fill:#000000;fill-opacity:1;fill-rule:evenodd;stroke:#000000;stroke-width:4.30000019;stroke-linecap:square;stroke-linejoin:miter;stroke-miterlimit:4;stroke-dasharray:none;stroke-opacity:1" />
      <path
         sodipodi:nodetypes="csc"
         inkscape:connector-curvature="0"
         id="path4190"
         d="m 338.92857,323.07649 c 0,0 6.35794,-8.77389 18.21429,-10 9.04425,-0.9353 22.0203,1.21936 22.0203,1.21936"
         style="fill:none;fill-rule:evenodd;stroke:#000000;stroke-width:4.30000019;stroke-linecap:round;stroke-linejoin:miter;stroke-miterlimit:4;stroke-dasharray:none;stroke-opacity:1" />
    </g>
    <path
       style="fill:#00ffa5;fill-opacity:1;fill-rule:evenodd;stroke:#000000;stroke-width:4.30000019;stroke-linecap:round;stroke-linejoin:miter;stroke-miterlimit:4;stroke-dasharray:none;stroke-opacity:1"
       d="m 281.23929,551.82198 c 0,0 5.05381,8.51074 8.40926,8.67155 2.92792,0.14032 9.39635,-9.75193 9.39635,-9.75193"
       id="path4251"
       inkscape:connector-curvature="0"
       sodipodi:nodetypes="csc" />
    <path
       style="fill:#ffc195;fill-opacity:1;fill-rule:evenodd;stroke:#000000;stroke-width:4.30000019;stroke-linecap:round;stroke-linejoin:miter;stroke-miterlimit:5;stroke-dasharray:none;stroke-opacity:1"
       d="m 90.289809,616.51965 c -8.25635,29.21637 -14.83671,89.86514 -14.83671,89.86514 0,0 -25.74199,20.06518 -22.61373,23.86837 3.12825,3.80318 9.3843,-3.7519 9.3843,-3.7519 0,0 -8.74233,7.17057 -5.19301,10.47906 3.54932,3.30848 10.61693,-5.1795 10.61693,-5.1795 0,0 -7.94528,8.02668 -3.94848,11.29868 3.9968,3.272 9.64566,-6.21021 9.64566,-6.21021 0,0 -6.64384,7.60913 -2.06397,10.38667 4.57988,2.77754 9.61771,-6.8256 9.61771,-6.8256 0,0 -7.98013,11.32866 -0.0633,13.2739 5.44127,1.33698 10.95679,-19.12944 17.44919,-27.88752 8.579281,-11.57322 5.108161,-8.83951 6.004281,-18.65505 0.94027,-10.29916 7.85467,-51.92382 15.34934,-83.54289"
       id="path4192-7-15"
       inkscape:connector-curvature="0"
       sodipodi:nodetypes="cczczczczcsssc"
       inkscape:export-filename="C:\Users\joers\Documents\git\src\github.com\astropuffin\surfwars\Assets\art\shin.png"
       inkscape:export-xdpi="452.31"
       inkscape:export-ydpi="452.31" />
    <g
       id="g6466"
       transform="matrix(0.9999976,-0.00218917,0.00218917,0.9999976,32.521599,9.6440255)"
       inkscape:export-filename="C:\Users\joers\Documents\git\src\github.com\astropuffin\surfwars\Assets\art\theigh.png"
       inkscape:export-xdpi="452.31"
       inkscape:export-ydpi="452.31">
      <path
         sodipodi:nodetypes="ccccc"
         inkscape:connector-curvature="0"
         id="path6419"
         d="m 55.357144,601.46935 24.724264,-60.63724 33.928572,6.6938 c 0,0 -28.427969,45.70609 -29.009975,60.19344 -9.006857,-2.65959 -29.642861,-6.25 -29.642861,-6.25 z"
         style="fill:#ffc195;fill-opacity:1;fill-rule:evenodd;stroke:none;stroke-width:4.30000019;stroke-linecap:butt;stroke-linejoin:miter;stroke-miterlimit:4;stroke-dasharray:none;stroke-opacity:1" />
      <path
         sodipodi:nodetypes="ccc"
         inkscape:connector-curvature="0"
         id="path6419-9"
         d="m 55.478602,601.29451 c -4.218656,-3.25223 -1.181017,-6.49225 1.303951,-7.17418 3.809546,-14.7451 18.595297,-46.47734 24.410343,-54.13184"
         style="fill:#ffc195;fill-opacity:1;fill-rule:evenodd;stroke:#000000;stroke-width:4.30000019;stroke-linecap:round;stroke-linejoin:miter;stroke-miterlimit:4;stroke-dasharray:none;stroke-opacity:1" />
      <path
         sodipodi:nodetypes="cc"
         inkscape:connector-curvature="0"
         id="path6419-9-8"
         d="m 85.225955,607.23846 c 4.901559,-17.76538 20.020755,-45.16322 29.122415,-59.16651"
         style="fill:none;fill-opacity:1;fill-rule:evenodd;stroke:#000000;stroke-width:4.30000019;stroke-linecap:round;stroke-linejoin:miter;stroke-miterlimit:4;stroke-dasharray:none;stroke-opacity:1" />
    </g>
  </g>
</svg>
