<?xml version="1.0" encoding="utf-8"?>
<!-- Generator: Adobe Illustrator 19.2.1, SVG Export Plug-In . SVG Version: 6.00 Build 0)  -->
<svg version="1.1" id="Layer_1" xmlns="http://www.w3.org/2000/svg" xmlns:xlink="http://www.w3.org/1999/xlink" x="0px" y="0px"
	 viewBox="0 0 102.2 64.9" style="enable-background:new 0 0 102.2 64.9;" xml:space="preserve">
<style type="text/css">
	.st0{fill:#45385B;}
</style>
<path class="st0" d="M0,36.5c-0.1-19.8,30.5-19,30.5-19h9.2c0,0,22.9-20.1,23.9-17.2s4.9,8.8,2.7,13.9c-2.2,5.1-6.7,6.9-6.7,6.9
	s3.6,6,17.8,4.3c0,0,8.5-13.5,21.6-18.6c1.9-0.7,6.9,6.6-1.5,19.2c-2.9,4.4-7.8,9.1-3.3,19.1c2.4,5.2,0.4,8.9-0.7,8.4
	c-8.4-3.6-16.8-11.4-16.8-11.4l-21.1,9c0,0,0,6.5,1.8,9.5s-0.3,4.7-2.1,4.2c-1.8-0.6-13.6-9.2-15.4-12.8C39.9,52-0.1,56.2,0,36.5z"
	/>
</svg>
